<mxfile host="app.diagrams.net" modified="2023-10-18T12:57:51.999Z" agent="Mozilla/5.0 (Macintosh; Intel Mac OS X 10_15_7) AppleWebKit/605.1.15 (KHTML, like Gecko) Version/16.1 Safari/605.1.15" etag="dZdyQFaG4t4XIQ5PNQ6G" version="22.0.4" type="github">
  <diagram name="Seite-1" id="4uEQWGBOSVK4lKFrfHZp">
    <mxGraphModel dx="871" dy="566" grid="1" gridSize="10" guides="1" tooltips="1" connect="1" arrows="1" fold="1" page="1" pageScale="1" pageWidth="827" pageHeight="1169" math="0" shadow="0">
      <root>
        <mxCell id="0" />
        <mxCell id="1" parent="0" />
        <mxCell id="-mwzHlTSXCIwCckR4kkh-3" value="" style="edgeStyle=orthogonalEdgeStyle;rounded=0;orthogonalLoop=1;jettySize=auto;html=1;" edge="1" parent="1" source="-mwzHlTSXCIwCckR4kkh-1" target="-mwzHlTSXCIwCckR4kkh-2">
          <mxGeometry relative="1" as="geometry">
            <Array as="points">
              <mxPoint x="200" y="60" />
              <mxPoint x="200" y="60" />
            </Array>
          </mxGeometry>
        </mxCell>
        <mxCell id="-mwzHlTSXCIwCckR4kkh-1" value="" style="strokeWidth=2;html=1;shape=mxgraph.flowchart.start_2;whiteSpace=wrap;fillColor=#000000;" vertex="1" parent="1">
          <mxGeometry x="90" y="40" width="40" height="40" as="geometry" />
        </mxCell>
        <mxCell id="-mwzHlTSXCIwCckR4kkh-5" value="" style="edgeStyle=orthogonalEdgeStyle;rounded=0;orthogonalLoop=1;jettySize=auto;html=1;" edge="1" parent="1" source="-mwzHlTSXCIwCckR4kkh-2" target="-mwzHlTSXCIwCckR4kkh-4">
          <mxGeometry relative="1" as="geometry" />
        </mxCell>
        <mxCell id="-mwzHlTSXCIwCckR4kkh-2" value="Fachfeinkonzept erstellen" style="rounded=1;whiteSpace=wrap;html=1;absoluteArcSize=1;arcSize=14;strokeWidth=2;" vertex="1" parent="1">
          <mxGeometry x="200" y="20" width="100" height="80" as="geometry" />
        </mxCell>
        <mxCell id="-mwzHlTSXCIwCckR4kkh-9" value="" style="edgeStyle=orthogonalEdgeStyle;rounded=0;orthogonalLoop=1;jettySize=auto;html=1;" edge="1" parent="1" source="-mwzHlTSXCIwCckR4kkh-4" target="-mwzHlTSXCIwCckR4kkh-8">
          <mxGeometry relative="1" as="geometry" />
        </mxCell>
        <mxCell id="-mwzHlTSXCIwCckR4kkh-4" value="Dokumente aufarbeiten" style="whiteSpace=wrap;html=1;rounded=1;arcSize=14;strokeWidth=2;" vertex="1" parent="1">
          <mxGeometry x="370" y="30" width="120" height="60" as="geometry" />
        </mxCell>
        <mxCell id="-mwzHlTSXCIwCckR4kkh-7" style="edgeStyle=orthogonalEdgeStyle;rounded=0;orthogonalLoop=1;jettySize=auto;html=1;exitX=0.5;exitY=1;exitDx=0;exitDy=0;" edge="1" parent="1" source="-mwzHlTSXCIwCckR4kkh-2" target="-mwzHlTSXCIwCckR4kkh-2">
          <mxGeometry relative="1" as="geometry" />
        </mxCell>
        <mxCell id="-mwzHlTSXCIwCckR4kkh-14" value="" style="edgeStyle=orthogonalEdgeStyle;rounded=0;orthogonalLoop=1;jettySize=auto;html=1;" edge="1" parent="1" source="-mwzHlTSXCIwCckR4kkh-8" target="-mwzHlTSXCIwCckR4kkh-13">
          <mxGeometry relative="1" as="geometry" />
        </mxCell>
        <mxCell id="-mwzHlTSXCIwCckR4kkh-8" value="Dokumente ablegen" style="whiteSpace=wrap;html=1;rounded=1;arcSize=14;strokeWidth=2;" vertex="1" parent="1">
          <mxGeometry x="570" y="30" width="120" height="60" as="geometry" />
        </mxCell>
        <mxCell id="-mwzHlTSXCIwCckR4kkh-12" value="" style="edgeStyle=orthogonalEdgeStyle;rounded=0;orthogonalLoop=1;jettySize=auto;html=1;" edge="1" parent="1" source="-mwzHlTSXCIwCckR4kkh-10" target="-mwzHlTSXCIwCckR4kkh-8">
          <mxGeometry relative="1" as="geometry" />
        </mxCell>
        <mxCell id="-mwzHlTSXCIwCckR4kkh-10" value="SharePoint" style="strokeWidth=2;html=1;shape=mxgraph.flowchart.database;whiteSpace=wrap;" vertex="1" parent="1">
          <mxGeometry x="760" y="10" width="60" height="60" as="geometry" />
        </mxCell>
        <mxCell id="-mwzHlTSXCIwCckR4kkh-16" value="" style="edgeStyle=orthogonalEdgeStyle;rounded=0;orthogonalLoop=1;jettySize=auto;html=1;" edge="1" parent="1" source="-mwzHlTSXCIwCckR4kkh-13" target="-mwzHlTSXCIwCckR4kkh-15">
          <mxGeometry relative="1" as="geometry" />
        </mxCell>
        <mxCell id="-mwzHlTSXCIwCckR4kkh-13" value="Stakeholder benachrichtigen" style="whiteSpace=wrap;html=1;rounded=1;arcSize=14;strokeWidth=2;" vertex="1" parent="1">
          <mxGeometry x="570" y="170" width="120" height="60" as="geometry" />
        </mxCell>
        <mxCell id="-mwzHlTSXCIwCckR4kkh-18" value="" style="edgeStyle=orthogonalEdgeStyle;rounded=0;orthogonalLoop=1;jettySize=auto;html=1;" edge="1" parent="1" source="-mwzHlTSXCIwCckR4kkh-15">
          <mxGeometry relative="1" as="geometry">
            <mxPoint x="400" y="340" as="targetPoint" />
          </mxGeometry>
        </mxCell>
        <mxCell id="-mwzHlTSXCIwCckR4kkh-15" value="Review durchführen" style="whiteSpace=wrap;html=1;rounded=1;arcSize=14;strokeWidth=2;" vertex="1" parent="1">
          <mxGeometry x="340" y="250" width="120" height="60" as="geometry" />
        </mxCell>
        <mxCell id="-mwzHlTSXCIwCckR4kkh-20" value="" style="edgeStyle=orthogonalEdgeStyle;rounded=0;orthogonalLoop=1;jettySize=auto;html=1;" edge="1" parent="1" target="-mwzHlTSXCIwCckR4kkh-19">
          <mxGeometry relative="1" as="geometry">
            <mxPoint x="380" y="345" as="sourcePoint" />
          </mxGeometry>
        </mxCell>
        <mxCell id="-mwzHlTSXCIwCckR4kkh-22" value="" style="edgeStyle=orthogonalEdgeStyle;rounded=0;orthogonalLoop=1;jettySize=auto;html=1;" edge="1" parent="1" target="-mwzHlTSXCIwCckR4kkh-21">
          <mxGeometry relative="1" as="geometry">
            <mxPoint x="400" y="360" as="sourcePoint" />
          </mxGeometry>
        </mxCell>
        <mxCell id="-mwzHlTSXCIwCckR4kkh-26" value="" style="edgeStyle=orthogonalEdgeStyle;rounded=0;orthogonalLoop=1;jettySize=auto;html=1;" edge="1" parent="1" target="-mwzHlTSXCIwCckR4kkh-25">
          <mxGeometry relative="1" as="geometry">
            <mxPoint x="420" y="345" as="sourcePoint" />
          </mxGeometry>
        </mxCell>
        <mxCell id="-mwzHlTSXCIwCckR4kkh-28" value="" style="edgeStyle=orthogonalEdgeStyle;rounded=0;orthogonalLoop=1;jettySize=auto;html=1;" edge="1" parent="1" source="-mwzHlTSXCIwCckR4kkh-19">
          <mxGeometry relative="1" as="geometry">
            <mxPoint x="365" y="530" as="targetPoint" />
            <Array as="points">
              <mxPoint x="110" y="530" />
            </Array>
          </mxGeometry>
        </mxCell>
        <mxCell id="-mwzHlTSXCIwCckR4kkh-19" value="Überprüfen durch &amp;nbsp;Kunden" style="whiteSpace=wrap;html=1;rounded=1;arcSize=14;strokeWidth=2;" vertex="1" parent="1">
          <mxGeometry x="50" y="390" width="120" height="60" as="geometry" />
        </mxCell>
        <mxCell id="-mwzHlTSXCIwCckR4kkh-29" value="" style="edgeStyle=orthogonalEdgeStyle;rounded=0;orthogonalLoop=1;jettySize=auto;html=1;" edge="1" parent="1" source="-mwzHlTSXCIwCckR4kkh-21">
          <mxGeometry relative="1" as="geometry">
            <mxPoint x="400" y="530" as="targetPoint" />
          </mxGeometry>
        </mxCell>
        <mxCell id="-mwzHlTSXCIwCckR4kkh-21" value="&lt;span style=&quot;caret-color: rgb(0, 0, 0); color: rgb(0, 0, 0); font-family: Helvetica; font-size: 12px; font-style: normal; font-variant-caps: normal; font-weight: 400; letter-spacing: normal; text-align: center; text-indent: 0px; text-transform: none; word-spacing: 0px; -webkit-text-stroke-width: 0px; background-color: rgb(251, 251, 251); text-decoration: none; float: none; display: inline !important;&quot;&gt;Überprüfen durch &amp;nbsp; &amp;nbsp;IT-Leiter&lt;/span&gt;" style="whiteSpace=wrap;html=1;rounded=1;arcSize=14;strokeWidth=2;" vertex="1" parent="1">
          <mxGeometry x="340" y="390" width="120" height="60" as="geometry" />
        </mxCell>
        <mxCell id="-mwzHlTSXCIwCckR4kkh-31" value="" style="edgeStyle=orthogonalEdgeStyle;rounded=0;orthogonalLoop=1;jettySize=auto;html=1;entryX=1;entryY=0.5;entryDx=0;entryDy=0;" edge="1" parent="1" source="-mwzHlTSXCIwCckR4kkh-25">
          <mxGeometry relative="1" as="geometry">
            <mxPoint x="435" y="530" as="targetPoint" />
            <Array as="points">
              <mxPoint x="690" y="530" />
            </Array>
          </mxGeometry>
        </mxCell>
        <mxCell id="-mwzHlTSXCIwCckR4kkh-25" value="&lt;span style=&quot;caret-color: rgb(0, 0, 0); color: rgb(0, 0, 0); font-family: Helvetica; font-size: 12px; font-style: normal; font-variant-caps: normal; font-weight: 400; letter-spacing: normal; text-align: center; text-indent: 0px; text-transform: none; word-spacing: 0px; -webkit-text-stroke-width: 0px; background-color: rgb(251, 251, 251); text-decoration: none; float: none; display: inline !important;&quot;&gt;Überprüfen durch &amp;nbsp;externer Gutachter&lt;/span&gt;" style="whiteSpace=wrap;html=1;rounded=1;arcSize=14;strokeWidth=2;" vertex="1" parent="1">
          <mxGeometry x="630" y="390" width="120" height="60" as="geometry" />
        </mxCell>
        <mxCell id="-mwzHlTSXCIwCckR4kkh-34" value="" style="endArrow=none;html=1;rounded=0;strokeWidth=15;" edge="1" parent="1">
          <mxGeometry width="50" height="50" relative="1" as="geometry">
            <mxPoint x="350" y="340" as="sourcePoint" />
            <mxPoint x="460" y="340" as="targetPoint" />
          </mxGeometry>
        </mxCell>
        <mxCell id="-mwzHlTSXCIwCckR4kkh-35" value="" style="endArrow=none;html=1;rounded=0;strokeWidth=15;" edge="1" parent="1">
          <mxGeometry width="50" height="50" relative="1" as="geometry">
            <mxPoint x="350" y="530" as="sourcePoint" />
            <mxPoint x="460" y="530" as="targetPoint" />
          </mxGeometry>
        </mxCell>
        <mxCell id="-mwzHlTSXCIwCckR4kkh-36" value="" style="endArrow=classic;html=1;rounded=0;" edge="1" parent="1" target="-mwzHlTSXCIwCckR4kkh-37">
          <mxGeometry width="50" height="50" relative="1" as="geometry">
            <mxPoint x="400" y="540" as="sourcePoint" />
            <mxPoint x="400" y="590" as="targetPoint" />
          </mxGeometry>
        </mxCell>
        <mxCell id="-mwzHlTSXCIwCckR4kkh-37" value="Gesamtbewertung&lt;br&gt;durchführen" style="rounded=1;whiteSpace=wrap;html=1;absoluteArcSize=1;arcSize=14;strokeWidth=2;" vertex="1" parent="1">
          <mxGeometry x="325" y="570" width="150" height="70" as="geometry" />
        </mxCell>
      </root>
    </mxGraphModel>
  </diagram>
</mxfile>
